<?xml version="1.0" encoding="UTF-8" standalone="no"?>
<svg
   width="87"
   height="87"
   viewBox="0 0 87 87"
   class="css-1j8o68f"
   version="1.1"
   id="svg15"
   sodipodi:docname="G.svg"
   inkscape:version="1.2.2 (b0a8486541, 2022-12-01)"
   xmlns:inkscape="http://www.inkscape.org/namespaces/inkscape"
   xmlns:sodipodi="http://sodipodi.sourceforge.net/DTD/sodipodi-0.dtd"
   xmlns="http://www.w3.org/2000/svg"
   xmlns:svg="http://www.w3.org/2000/svg">
  <sodipodi:namedview
     id="namedview17"
     pagecolor="#ffffff"
     bordercolor="#666666"
     borderopacity="1.0"
     inkscape:showpageshadow="2"
     inkscape:pageopacity="0.0"
     inkscape:pagecheckerboard="0"
     inkscape:deskcolor="#d1d1d1"
     showgrid="false"
     inkscape:zoom="6.0965871"
     inkscape:cx="60.033588"
     inkscape:cy="43.466942"
     inkscape:window-width="1920"
     inkscape:window-height="1015"
     inkscape:window-x="0"
     inkscape:window-y="0"
     inkscape:window-maximized="1"
     inkscape:current-layer="svg15" />
  <defs
     id="SvgjsDefs1244" />
  <g
     id="SvgjsG1245"
     featurekey="symbolGroupContainer"
     transform="scale(0.87)"
     fill="#ffffff">
    <path
       d="M 0,0 H 100 V 100 H 0 Z"
       id="path3" />
  </g>
  <g
     id="SvgjsG1246"
     featurekey="Z2iLy3-0"
     transform="matrix(3.1841104,0,0,3.1841104,18.947482,3.2662431)"
     fill="#111111">
    <path
       d="m 11.836,20 v -2.5391 q -0.605469,1.064453 -1.181641,1.5625 -0.576171,0.498047 -1.3036996,0.80078 -0.7275282,0.302733 -1.9482,0.29297 -0.6054688,-0.0098 -1.2109375,-0.141602 -0.6054688,-0.131836 -1.1719,-0.37109 -0.5664313,-0.239254 -1.1084,-0.57617 -0.5419688,-0.336916 -0.98145,-0.77637 -1.0839844,-1.09375 -1.6845703,-2.534179 -0.60058598,-1.44043 -0.60059004,-3.1396 0,-1.044922 0.25390625,-2.021485 0.25390629,-0.9765621 0.71288999,-1.8261996 0.4589838,-0.8496375 1.1084,-1.5479 0.6494163,-0.6982625 1.4453,-1.1963 0.7958838,-0.4980375 1.7139,-0.77148 0.9180163,-0.2734425 1.9238,-0.27344 1.1523438,0 2.0019531,0.3076172 0.8496091,0.3076171 1.8262001,1.1475 h 2.1875 v 3.3008 h -3.0176 Q 10.351642,9.0038922 9.9561344,8.6913922 q -0.3955078,-0.3125 -0.85938,-0.51758 -0.4638722,-0.20508 -1.2939,-0.20508 -0.8203125,0 -1.5234375,0.3710937 -0.703125,0.3710938 -1.2158,1.001 -0.512675,0.6299063 -0.80566,1.4844001 -0.292985,0.854494 -0.29297,1.7529 0,0.888672 0.2636718,1.689453 0.2636719,0.800781 0.80078,1.4404 0.5371082,0.639619 1.25,0.98145 0.7128919,0.341831 1.5234,0.3418 1.0351563,0 1.8066407,-0.605469 0.7714846,-0.605468 1.1132996,-1.6504 H 7.9004794 v -2.6758 h 6.8554996 v 7.9004 h -2.9199 z"
       id="path6" />
  </g>
</svg>
